<svg xmlns="http://www.w3.org/2000/svg" viewBox="0 0 64 64" width="64" height="64" aria-hidden="true">
  <defs>
    <linearGradient id="g1" x1="0%" x2="100%" y1="0%" y2="100%">
      <stop offset="0%" stop-color="#ff8b95" />
      <stop offset="50%" stop-color="#e63946" />
      <stop offset="100%" stop-color="#4b0000" />
    </linearGradient>
    <linearGradient id="g2" x1="0%" x2="100%" y1="0%" y2="100%">
      <stop offset="0%" stop-color="#ffdfe1" stop-opacity="0.95" />
      <stop offset="100%" stop-color="#ffb6bd" stop-opacity="0.8" />
    </linearGradient>
    <filter id="f1" x="-50%" y="-50%" width="200%" height="200%">
      <feGaussianBlur stdDeviation="3" result="b" />
      <feMerge>
        <feMergeNode in="b" />
        <feMergeNode in="SourceGraphic" />
      </feMerge>
    </filter>
  </defs>

  <!-- Crown body -->
  <path d="M6 44c0 2.8 5 6 8 6h36c3 0 8-3.2 8-6V24L46 12 36 30 28 12 18 30 6 24v20z"
        fill="url(#g1)" stroke="#3b0000" stroke-width="1.5" filter="url(#f1)" />

  <!-- Crown brim highlight -->
  <path d="M10 46c6-4 14-6 22-6s16 2 22 6" fill="none" stroke="#ffb0b6" stroke-opacity="0.28" stroke-width="2" />

  <!-- Jewels -->
  <circle cx="18" cy="26" r="3.6" fill="url(#g2)" stroke="#7a0000" stroke-width="0.6" />
  <circle cx="32" cy="18" r="4.6" fill="url(#g2)" stroke="#7a0000" stroke-width="0.6" />
  <circle cx="46" cy="26" r="3.6" fill="url(#g2)" stroke="#7a0000" stroke-width="0.6" />

  <!-- Small sparkles -->
  <g fill="#fff" fill-opacity="0.9">
    <circle cx="34" cy="10" r="0.9" />
    <circle cx="22" cy="20" r="0.7" />
    <circle cx="50" cy="22" r="0.7" />
  </g>
</svg>